<?xml version="1.0" encoding="utf-8"?>
<!-- Generator: Adobe Illustrator 15.0.2, SVG Export Plug-In  -->
<!DOCTYPE svg PUBLIC "-//W3C//DTD SVG 1.1//EN" "http://www.w3.org/Graphics/SVG/1.1/DTD/svg11.dtd" [
	<!ENTITY ns_flows "http://ns.adobe.com/Flows/1.0/">
]>
<svg version="1.1"
	 xmlns="http://www.w3.org/2000/svg" xmlns:xlink="http://www.w3.org/1999/xlink" xmlns:a="http://ns.adobe.com/AdobeSVGViewerExtensions/3.0/"
	 x="0px" y="0px" viewBox="-8.667 -25.656 300 100"
	 overflow="visible" enable-background="new -8.667 -25.656 300 100" xml:space="preserve">
<defs>
</defs>
<path opacity="0.2" stroke="#000000" stroke-width="6" stroke-miterlimit="10" d="M43.333,42.26l-0.006,0.208
	c-0.003,0.026,0.006,0.056,0.006,0.087v0.003c0,0.002,0,0.004,0,0.006s0,0.002,0,0.003c0,0.008,0.306,0.015,0.306,0.022l0.284,0.201
	c-0.613,4.935-2.59,7.756-4.59,7.756v-0.004c-3,0-4.321-2.688-5.438-7.557c-0.768-3.347-1.449-6.744-1.874-10.021
	c-1.624,8.984-4.049,16.452-8.431,16.452c-3.1,0-5.607-4.175-7.84-13.169c-0.31,4.457-1.187,8.697-3.5,12.235
	c-0.914,1.395-1.877,1.861-2.946,1.861H9.302c-2.206,0-3.756-2.563-5.023-8.789C3.454,37.496,3,33.223,3,32.057
	C3,26.34,3.679,18.066,6.934,11.12c1.719-3.67,3.639-5.454,5.887-5.454c3.618,0,7.202,5.028,10.704,14.957
	C25.657,15.518,30.286,6.06,35.553,6.06c2.871,0,4.833,2.621,6.397,8.013c2.271,7.82,3.383,17.303,1.383,28.185
	C43.333,42.257,43.333,42.258,43.333,42.26z M76.605,27.6c0,6.14-1.386,11.869-3.901,16.21c-2.756,4.753-6.625,7.329-11.239,7.665
	c-0.094,0.023-0.193-0.131-0.294-0.131h-1.363c-0.093,0-0.183,0.156-0.27,0.137c-4.426-0.291-8.103-2.532-10.671-6.841
	c-2.336-3.92-3.623-9.259-3.623-15.033c0-12.165,5.655-24.48,16.464-24.48C71.943,5.126,76.605,16.757,76.605,27.6z M64.162,28.984
	c0-2.545-0.342-4.874-0.964-6.559c-0.325-0.882-1.025-2.36-2.058-2.36c-1.075,0-1.798,1.273-2.216,2.341
	c-0.647,1.657-1.004,3.954-1.004,6.469c0,5.155,1.5,9.51,3.276,9.51C62.6,38.384,64.162,34.524,64.162,28.984z M105.333,14.919
	c0,0.064,0.016,0.131,0.016,0.198c0,0.067-0.016,0.134-0.016,0.198v0.694c0,0.125-0.098,0.245-0.133,0.357
	c-0.348,4.047-2.45,7.884-5.714,10.741c3.038,1.275,4.865,3.688,5.22,6.975c0.607,5.604-3.308,12.279-8.549,14.577
	c-2.73,1.197-5.853,1.83-9.028,1.83c-1.133,0-2.275-0.081-3.392-0.239c-6.088-0.872-5.991-7.1-5.917-11.647
	c0.013-0.846,0.021-1.645-0.001-2.374c-0.042-1.406-0.121-2.88-0.192-4.396c-0.318-6.85-0.698-14.613,1.083-20.952
	c1.121-3.978,5.516-6.448,11.539-6.448c7.014,0,14.62,3.558,14.989,10.166c0.01,0.062,0.094,0.124,0.094,0.188V14.919z
	 M93.126,34.494c0-0.436-0.104-0.558-0.105-0.559c-0.007-0.005-0.057-0.021-0.152-0.021c-1.112,0-3.104,1.663-3.104,3.3
	c0,0.48,0.073,0.719,0.115,0.814c0.349-0.037,1.114-0.405,1.97-1.308C92.688,35.837,93.126,34.933,93.126,34.494z M93.353,18.12
	c0-0.787-0.097-1.19-0.166-1.377c-0.519,0.223-1.729,1.27-2.956,3.289c-1.125,1.852-1.445,3.21-1.392,3.678h0
	C90.832,23.709,93.353,20.244,93.353,18.12z M130.333,10.329c0-0.064,0.016-0.131,0.016-0.198c0-0.067-0.016-0.134-0.016-0.198
	V9.894c0-0.076,0.077-0.151,0.062-0.223c-0.167-1.852-1.414-4.468-7.358-4.468c-5.388,0-12.715,2.161-14.477,3.519
	c-2.515,1.942-2.566,3.717-2.174,4.863c0.828,2.427,4.303,3.644,6.69,3.795c-0.026,0.744-0.047,1.488-0.072,2.232
	c-0.201,6.058-0.407,12.32-1.129,18.408c-0.107,0.44-1.262,1.75-2.028,2.617c-2.069,2.342-4.413,4.997-3.767,7.356
	c0.316,1.153,1.262,1.992,2.812,2.494c1.399,0.45,3.182,0.688,5.156,0.688c4.801,0,10.864-1.43,13.584-4.623
	c1.715-2.012,1.284-3.799,0.875-4.684c-0.857-1.858-2.979-2.993-4.886-3.299c0.717-6.063,1.172-12.376,1.391-19.253
	c0.079-2.475,1.099-3.141,2.392-3.985c1.332-0.869,2.893-1.944,3.005-4.879c0.005-0.04-0.077-0.081-0.077-0.122V10.329z
	 M157.42,33.77c-0.615-3.396-9.418-3.774-13.28-3.774c-4.796,0-12.842,0.541-12.842,4.158c0,1.862,2.408,2.521,4.505,2.888
	c2.08,0.362,4.929,0.562,8.023,0.562c5.621,0,12.219-0.489,13.431-2.69c0.099-0.151,0.164-0.326,0.188-0.514
	c0.017-0.078,0.024-0.162,0.024-0.245c0-0.085-0.009-0.167-0.024-0.247C157.438,33.86,157.431,33.815,157.42,33.77z M186.382,11.304
	c0.012-0.068-0.008-0.138-0.008-0.209c0-0.067-0.041-0.134-0.041-0.198v-0.785c0-0.187-0.017-0.363-0.093-0.521
	c-0.623-3.778-3.667-5.91-8.587-5.91c-6.773,0-15.213,3.869-17.689,7.072c-1.631,2.108-2.092,3.939-1.419,5.312
	c0.708,1.441,2.474,2.281,5.405,2.281h0.003c2.443,0,5.345-0.636,7.595-1.229c-0.466,0.783-0.982,1.566-1.532,2.472
	c-5.369,8.845-12.722,20.921-9.149,27.269c1.411,2.509,4.329,3.764,8.671,3.764c0.673,0,16.449-0.099,16.449-7.903
	c0-1.857-0.867-4.979-6.681-4.979c-1.876,0-3.828,0.321-5.35,0.657c0.815-1.449,1.768-3.05,2.753-4.707
	C180.972,26.522,186.266,17.623,186.382,11.304z M215.151,39.344h-0.028c-0.079-3-2.015-5.088-5.472-5.088
	c-3.038,0-6.784,1.449-9.263,2.384c-0.044,0.017-0.087,0.05-0.13,0.067c-0.004-2.719,1.508-3.232,4.155-4.146
	c1.875-0.647,4.21-1.449,6.228-3.372c0.776-0.739,3.141-2.984,2.251-5.212c-0.855-2.141-4.14-2.59-6.745-2.59
	c-1.946,0-4.033,0.256-5.67,0.66c0.799-2.952,2.84-3.654,5.699-4.636c2.555-0.878,5.451-1.874,7.735-4.845
	c0.021-0.029,0.042-0.058,0.062-0.088c0.896-1.413,1.153-3.129,0.703-4.709c-0.43-1.507-1.448-2.715-2.871-3.402
	C209.918,3.46,207.93,3,205.896,3c-8.907,0-16.333,8.46-17.425,16.052c-2.307,15.984-1.529,25.341,2.373,28.605
	c2.013,1.688,5.199,2.043,7.519,2.043c6.881-0.001,16.461-3.33,16.853-9.589c0.01-0.058,0.117-0.117,0.117-0.176v-0.031
	c0-0.064-0.089-0.206-0.089-0.272C215.244,39.559,215.163,39.344,215.151,39.344z M246.333,40.569c0-0.061-0.344-0.119-0.352-0.177
	c-0.121-1.861-1.374-4.555-6.618-4.555c-3.474,0-7.787,1.166-10.324,1.939c0.037-2.444,0.122-4.943,0.245-7.375
	c0.312-6.133,0.614-12.474-0.422-18.575c-0.354-2.089-2.205-6.67-5.361-6.67c-1.268,0-2.446,0.754-3.517,2.278
	c-2.576,3.977-2.946,9.742-3.242,14.374c-0.041,0.642-0.082,1.264-0.127,1.859c-0.031,0.443-0.078,0.979-0.129,1.589
	c-0.911,10.925-1.187,21.458,2.87,24.488c1.275,1.093,3.337,1.646,6.13,1.646c7.67,0,19.699-4.257,20.469-10.01
	c0.026-0.099,0.378-0.202,0.378-0.31V40.98c0-0.064,0.016-0.131,0.016-0.197c0-0.068-0.016-0.134-0.016-0.198V40.569z
	 M278.333,39.242v0.775c0,0.065-0.084,0.131-0.084,0.199s-0.045,0.136-0.057,0.201c-0.048,6.382-2.438,10.186-6.312,10.186
	c-6.311,0-6.435-8.298-6.5-12.756c-0.001-0.036-0.002-0.073-0.002-0.11c-0.688,0.071-1.323,0.105-1.911,0.139
	c-2.836,0.159-3.691,0.207-4.251,3.134c-0.216,1.122-2.945,9.441-7.19,9.442c-1.171,0-2.235-0.612-3.167-1.821
	c-4.471-5.788-1.67-16.288,0.181-23.237c0.176-0.659,0.347-1.279,0.493-1.852c1.498-5.852,7.277-18.681,14.658-18.681
	c2.528,0,4.941,1.472,7.12,4.375c5.722,7.631,6.834,21.566,6.916,29.892C278.231,39.165,278.333,39.203,278.333,39.242z
	 M264.78,26.264c-0.017-4.743-0.667-6.181-0.915-6.558c-0.753,0.538-2.369,3.414-3.151,7.953c0.156-0.005,0.309-0.009,0.457-0.013
	C263.683,27.583,264.384,27.442,264.78,26.264z"/>
<path fill="#DF0028" d="M41.82,40.814c-1.031,8.938-5.591,9.394-7.677,0.304c-1.455-6.341-2.167-12.865-2.691-19.341
	c-0.61,3.864-2.744,24.873-8.668,24.873c-5.317,0-8.278-19.853-8.952-23.626c0,7.39,0.781,17.008-3.399,23.399
	c-4.769,7.282-7.025-13.734-7.025-15.977c0-6.707,0.953-14.297,3.824-20.425C13.809-4.018,20.875,16.933,22.67,22.57
	c2.676-8.027,12.487-27.308,17.578-9.773C42.805,21.607,42.827,31.752,41.82,40.814C41.707,41.795,41.934,39.794,41.82,40.814z"/>
<path fill="#A6001E" d="M8.497,49.158c-2.207,0-3.755-2.775-5.022-9.001c-0.825-4.06-1.276-8.545-1.276-9.711
	c0-5.717,0.683-13.991,3.938-20.938c1.719-3.67,3.647-5.454,5.896-5.454c3.618,0,7.219,5.028,10.72,14.957
	c2.133-5.104,6.796-14.563,12.063-14.563c2.872,0,5.028,2.621,6.593,8.013c2.27,7.82,2.824,17.303,1.646,28.184
	c0,0.001,0,0.002,0,0.004l-0.023,0.207c-0.002,0.027-0.006,0.057-0.009,0.088v0.003l0,0c-0.001,0.002-0.001,0.004-0.001,0.006l0,0
	c0,0.001,0,0.001-0.001,0.003c0,0.008-0.001,0.016-0.002,0.022l-0.024,0.202c-0.613,4.936-2.33,7.758-4.713,7.758H38.28
	c-2.31,0-4.197-2.681-5.314-7.55c-0.768-3.347-1.326-6.731-1.751-10.009c-1.623,8.984-4.049,16.479-8.431,16.479
	c-3.1,0-5.607-4.121-7.84-13.115c-0.31,4.456-1.186,8.804-3.5,12.341C10.53,48.479,9.567,49.158,8.497,49.158L8.497,49.158z
	 M12.033,6.472c-1.163,0-2.479,1.442-3.707,4.062c-3.066,6.544-3.71,14.44-3.71,19.912c0,3.722,2.061,15.79,3.882,16.293
	c0.052-0.017,0.378-0.146,0.923-0.979c3.423-5.234,3.32-12.909,3.229-19.68c-0.014-1.05-0.027-2.073-0.027-3.057
	c0-0.626,0.479-1.149,1.103-1.204c0.614-0.056,1.186,0.375,1.296,0.991c0.049,0.274,0.11,0.634,0.183,1.063
	c3.308,19.465,6.402,21.566,7.579,21.566c1.93,0,4.75-3.823,7.218-22.032c0.105-0.776,0.189-1.398,0.256-1.82
	c0.096-0.605,0.626-1.035,1.24-1.02c0.611,0.023,1.109,0.5,1.159,1.11c0.468,5.777,1.151,12.572,2.665,19.168
	c1.063,4.631,2.529,5.672,2.958,5.672c0.528,0,1.788-1.378,2.314-5.637c0.008-0.067,0.017-0.143,0.027-0.221l0.03-0.277
	c0.001,0,0.001,0,0.001,0h-0.001c1.128-10.418,0.588-19.84-1.563-27.251c-1.174-4.042-2.69-6.269-4.271-6.269
	c-3.629,0-8.807,9.512-10.999,16.087c-0.165,0.496-0.623,0.847-1.154,0.826c-0.523-0.003-0.985-0.343-1.144-0.842
	C17.652,10.797,14.083,6.472,12.033,6.472z"/>
<path fill="#DF0028" d="M59.655,48.859c-19.658,0-18.063-44.135,1.247-44.135C79.604,4.724,79.099,48.859,59.655,48.859
	C57.351,48.859,62.072,48.859,59.655,48.859z M60.335,17.245c-6.15,0-5.672,20.736,0.057,20.736
	C65.763,37.981,66.166,17.245,60.335,17.245C59.617,17.245,61.09,17.245,60.335,17.245z"/>
<path fill="#A6001E" d="M60.365,50.068h-1.363c-0.093,0-0.183-0.011-0.27-0.03c-4.426-0.293-8.103-2.7-10.672-7.01
	c-2.336-3.919-3.623-9.258-3.623-15.032c0-12.166,5.655-24.48,16.464-24.48c10.236,0,14.898,11.672,14.898,22.517
	c0,6.139-1.386,11.91-3.901,16.25c-2.756,4.753-6.626,7.414-11.239,7.75C60.564,50.055,60.466,50.068,60.365,50.068z M60.901,5.932
	c-9.124,0-14.047,11.368-14.047,22.063c0,5.345,1.166,10.243,3.282,13.794c1.594,2.674,4.539,5.86,9.518,5.86
	c5.238,0,8.411-3.578,10.152-6.581c2.272-3.919,3.576-9.4,3.576-15.037C73.382,16.351,69.476,5.932,60.901,5.932z M60.392,39.19
	c-3.933,0-5.694-5.991-5.694-11.927c0-2.809,0.416-5.418,1.17-7.349c1.118-2.859,2.724-3.704,4.014-3.853
	c0.08-0.017,0.164-0.026,0.25-0.026h0.425c0.103,0,0.202,0.012,0.296,0.037c1.241,0.177,2.758,1.058,3.808,3.904
	c0.717,1.946,1.113,4.573,1.113,7.396C65.774,33.254,64.109,39.19,60.392,39.19z M60.335,18.453c-1.075,0-1.798,1.273-2.216,2.341
	c-0.648,1.657-1.004,3.954-1.004,6.469c0,5.154,1.501,9.509,3.277,9.509c1.402,0,2.965-3.86,2.965-9.399
	c0-2.545-0.342-4.875-0.964-6.559C62.067,19.932,61.367,18.453,60.335,18.453z"/>
<path fill="#DF0028" d="M103.161,13.505c0,5.149-2.87,9.657-7.082,12.465c11.271,2.254,6.47,16.604-1.211,19.971
	c-3.649,1.6-7.834,2.061-11.763,1.502c-5.99-0.858-4.732-8.118-4.873-12.861c-0.234-7.713-1.239-17.455,0.878-24.985
	C81.598,0.762,103.161,2.719,103.161,13.505C103.161,16.111,103.161,12.032,103.161,13.505z M93.755,16.508
	c0-8.648-10.398,6.798-5.722,6.798C90.897,23.307,93.755,19.101,93.755,16.508C93.755,15.866,93.755,17.113,93.755,16.508z
	 M93.529,32.882c0-3.856-5.779-0.789-5.779,2.719C87.75,40.407,93.529,35.51,93.529,32.882
	C93.529,32.24,93.529,33.449,93.529,32.882z"/>
<path fill="#A6001E" d="M86.326,48.877c-1.133,0-2.274-0.08-3.392-0.238c-6.088-0.872-5.988-7.1-5.915-11.648
	c0.014-0.845,0.026-1.644,0.005-2.374c-0.042-1.405-0.111-2.88-0.182-4.396c-0.318-6.85-0.678-14.613,1.104-20.952
	c1.121-3.978,5.557-6.448,11.58-6.448c7.015,0,14.459,3.558,14.829,10.167c0.009,0.061,0.014,0.124,0.014,0.187v0.133
	c0.01,0.064,0.016,0.13,0.016,0.198s-0.005,0.133-0.016,0.198v0.694c0,0.125-0.019,0.245-0.054,0.358
	c-0.348,4.047-2.371,7.883-5.635,10.741c3.038,1.275,4.865,3.688,5.22,6.975c0.607,5.604-3.307,12.279-8.548,14.577
	C92.623,48.246,89.501,48.877,86.326,48.877z M89.526,5.238c-3.66,0-8.279,1.227-9.253,4.686
	c-1.675,5.962-1.325,13.519-1.016,20.185c0.071,1.53,0.14,3.017,0.183,4.436c0.023,0.786,0.01,1.612-0.004,2.486
	c-0.083,5.222,0.138,8.685,3.84,9.215c3.804,0.542,7.809,0.034,11.106-1.411c4.211-1.846,7.602-7.615,7.116-12.104
	c-0.322-2.972-2.278-4.9-5.656-5.576c-0.479-0.096-0.854-0.471-0.949-0.95c-0.094-0.48,0.109-0.97,0.516-1.241
	c4.097-2.731,6.543-7.014,6.543-11.458C101.952,8.136,95.55,5.238,89.526,5.238z M89.035,38.838L89.035,38.838
	c-1.206,0-2.494-0.851-2.494-3.237c0-2.944,3.11-5.716,5.521-5.716c1.159,0,2.501,0.691,2.66,2.608
	c0.01,0.062,0.016,0.128,0.016,0.194v0.35c0,0.085-0.009,0.169-0.026,0.25c-0.189,1.518-1.378,2.922-1.914,3.485
	C92.207,37.394,90.66,38.838,89.035,38.838z M92.062,32.302c-1.112,0-3.104,1.662-3.104,3.299c0,0.481,0.073,0.72,0.115,0.815
	c0.349-0.037,1.114-0.406,1.97-1.308c0.838-0.883,1.276-1.788,1.276-2.227c0-0.437-0.104-0.559-0.105-0.559
	C92.208,32.319,92.158,32.302,92.062,32.302z M88.033,24.516c-0.976,0-1.544-0.428-1.848-0.787c-0.378-0.445-0.569-1.03-0.569-1.739
	c0-2.925,3.944-9.32,6.914-9.32c0.883,0,2.346,0.47,2.431,3.552c0.002,0.032,0.004,0.064,0.004,0.098v0.36
	c0,0.063-0.005,0.125-0.014,0.186C94.714,19.902,91.583,24.516,88.033,24.516z M88.033,22.098L88.033,22.098
	c1.993,0,4.514-3.466,4.514-5.59c0-0.787-0.097-1.19-0.166-1.377c-0.52,0.223-1.729,1.27-2.957,3.29
	C88.3,20.272,87.98,21.631,88.033,22.098z"/>
<path fill="#DF0028" d="M128.486,8.52c0,5.211-5.296,3.125-5.486,9.147c-0.217,6.831-0.691,13.644-1.539,20.427
	c3.06-0.225,7.327,2.684,4.447,6.062c-3.276,3.846-12.731,5.088-17.45,3.569c-6.253-2.023,3.539-8.875,3.81-11.154
	c0.87-7.325,0.995-14.681,1.26-22.047c-3.273,0.473-10.256-2.41-5.014-6.458C110.77,6.327,128.486,1.439,128.486,8.52
	C128.486,9.238,128.486,7.727,128.486,8.52z"/>
<path fill="#A6001E" d="M113.243,49.564c-1.974,0-3.756-0.237-5.155-0.688c-1.55-0.502-2.496-1.341-2.812-2.494
	c-0.646-2.359,1.698-5.015,3.767-7.356c0.766-0.867,1.922-2.177,2.029-2.617c0.723-6.088,0.93-12.351,1.13-18.409
	c0.024-0.744,0.049-1.488,0.075-2.231c-2.387-0.152-5.857-1.368-6.685-3.795c-0.392-1.147-0.331-2.921,2.184-4.864
	c1.761-1.358,9.11-3.519,14.498-3.519c5.944,0,7.233,2.616,7.401,4.468c0.013,0.073,0.021,0.147,0.021,0.223v0.04
	c0.01,0.064,0.016,0.13,0.016,0.198s-0.005,0.133-0.016,0.198v0.002c0,0.041-0.002,0.081-0.006,0.122
	c-0.112,2.935-1.757,4.009-3.088,4.878c-1.293,0.844-2.313,1.511-2.392,3.986c-0.219,6.876-0.674,13.189-1.392,19.253
	c1.908,0.306,4.03,1.44,4.887,3.298c0.409,0.886,0.84,2.673-0.875,4.684C124.106,48.134,118.043,49.564,113.243,49.564z
	 M113.528,13.316c0.296,0,0.585,0.109,0.808,0.309c0.267,0.24,0.413,0.585,0.4,0.943c-0.042,1.17-0.081,2.341-0.12,3.511
	c-0.202,6.107-0.411,12.424-1.149,18.634c-0.124,1.048-1.027,2.115-2.615,3.912c-1.327,1.503-3.547,4.018-3.247,5.117
	c0.114,0.416,0.815,0.699,1.224,0.832c1.161,0.374,2.687,0.571,4.413,0.571c4.238,0,9.634-1.297,11.745-3.774
	c0.967-1.135,0.631-1.864,0.521-2.104c-0.523-1.132-2.405-2.091-3.959-1.969c-0.372,0.021-0.716-0.112-0.965-0.373
	c-0.25-0.263-0.368-0.624-0.323-0.983c0.798-6.382,1.298-13.027,1.53-20.315c0.118-3.733,2.065-5.005,3.487-5.933
	c1.247-0.814,1.999-1.305,1.999-3.176c0-1.666-1.684-2.511-5.004-2.511c-5.167,0-11.887,2.141-13.021,3.015
	c-0.625,0.482-1.634,1.406-1.374,2.169c0.368,1.077,2.835,2.174,4.89,2.174c0.214,0,0.411-0.013,0.587-0.038
	C113.414,13.32,113.471,13.316,113.528,13.316z"/>
<path fill="#DF0028" d="M155.438,32.542c0,2.801-23.738,3.171-23.738,0C131.7,28.507,155.438,28.714,155.438,32.542
	C155.438,32.882,155.438,32.203,155.438,32.542z"/>
<path fill="#A6001E" d="M143.021,35.992c-3.094,0-5.944-0.2-8.023-0.562c-2.098-0.367-4.506-1.025-4.506-2.888
	c0-3.618,8.046-4.158,12.843-4.158c3.862,0,12.665,0.378,13.279,3.773c0.012,0.045,0.02,0.091,0.025,0.138
	c0.016,0.08,0.024,0.162,0.024,0.247c0,0.083-0.008,0.166-0.024,0.245c-0.023,0.188-0.089,0.362-0.188,0.513
	C155.239,35.502,148.642,35.992,143.021,35.992z M133.077,32.415c1.027,0.532,4.418,1.16,9.943,1.16
	c5.603,0,9.582-0.635,10.927-1.196c-1.141-0.723-5.027-1.577-10.613-1.577C137.269,30.801,133.911,31.763,133.077,32.415z"/>
<path fill="#DF0028" d="M184.369,9.483c0,8.26-9.918,21.818-13.598,29.178c2.738-0.883,13.201-3.475,13.201,2.437
	c0,5.713-11.381,6.686-15.241,6.686c-19.451,0,0.379-26.339,4.646-34.617c-2.694,1.54-19.745,5.102-13.258-3.286
	C164.016,4.843,184.369-1.848,184.369,9.483C184.369,9.672,184.369,7.18,184.369,9.483z"/>
<path fill="#A6001E" d="M168.731,48.991c-4.342,0-7.26-1.271-8.671-3.781c-3.572-6.347,3.78-18.459,9.149-27.303
	c0.551-0.905,1.068-1.758,1.534-2.541c-2.251,0.592-5.151,1.089-7.595,1.09h-0.001c-2.931,0-4.699-0.701-5.406-2.142
	c-0.674-1.373-0.209-3.065,1.422-5.173c2.478-3.204,10.924-7.072,17.696-7.072c4.92,0,7.977,2.132,8.599,5.91
	c0.076,0.158,0.118,0.335,0.118,0.522v0.785c0.011,0.065,0.016,0.131,0.016,0.198c0,0.071-0.005,0.141-0.017,0.209
	c-0.117,6.319-5.41,15.218-9.673,22.385c-0.985,1.656-1.938,3.256-2.753,4.705c1.521-0.337,3.473-0.659,5.35-0.659
	c5.812,0,6.681,3.116,6.681,4.975C185.181,48.902,169.403,48.991,168.731,48.991z M173.378,11.957c0.304,0,0.604,0.115,0.835,0.336
	c0.388,0.37,0.484,0.951,0.239,1.427c-0.723,1.402-1.86,3.274-3.176,5.441c-4.483,7.386-11.988,19.748-9.109,24.863
	c0.952,1.692,3.161,2.55,6.564,2.55c5.425,0,14.032-1.487,14.032-5.477c0-0.7,0-2.558-4.264-2.558c-3.315,0-6.954,1.142-7.358,1.271
	c-0.463,0.15-0.971,0.007-1.287-0.363c-0.317-0.369-0.382-0.893-0.164-1.328c1.026-2.054,2.537-4.593,4.136-7.279
	c4.158-6.991,9.334-15.691,9.334-21.357c0-1.236,0-4.997-6.3-4.997c-5.843,0-13.693,3.43-15.784,6.133
	c-1.108,1.433-1.319,2.312-1.164,2.629c0.179,0.364,1.134,0.79,3.236,0.79h0.001c3.621,0,8.479-1.264,9.629-1.921
	C172.965,12.009,173.172,11.957,173.378,11.957z"/>
<path fill="#DF0028" d="M213.11,38.094c0,7.753-17.402,11.131-22.294,7.025c-5.154-4.311-2.848-21.317-1.954-27.507
	c1.268-8.809,11.739-18.514,21.614-13.767c2.459,1.188,3.055,4.194,1.671,6.374c-4.914,6.394-13.222,2.74-13.994,12.011
	c3.487-1.798,18.303-2.608,10.85,4.476c-4.907,4.678-11.786,2.028-10.623,10.085C201.874,35.632,213.11,30.287,213.11,38.094
	C213.11,38.812,213.11,37.566,213.11,38.094z"/>
<path fill="#A6001E" d="M197.557,48.087c-2.318,0-5.506-0.354-7.518-2.042c-3.903-3.265-4.68-12.621-2.373-28.605
	c1.092-7.592,8.518-16.051,17.425-16.051c2.033,0,4.021,0.46,5.908,1.367c1.424,0.688,2.442,1.896,2.872,3.403
	c0.45,1.58,0.193,3.296-0.703,4.708c-0.02,0.03-0.04,0.06-0.062,0.089c-2.283,2.97-5.18,3.966-7.734,4.845
	c-2.859,0.982-4.9,1.684-5.699,4.636c1.637-0.404,3.723-0.659,5.67-0.659c2.605,0,5.89,0.45,6.745,2.591
	c0.89,2.228-1.475,4.475-2.251,5.214c-2.018,1.924-4.353,2.729-6.228,3.376c-2.647,0.915-4.16,1.437-4.155,4.156
	c0.043-0.017,0.086-0.032,0.129-0.049c2.479-0.935,6.226-2.346,9.264-2.346c3.457,0,5.393,1.83,5.472,5.161c0,0.001,0,0.001,0,0.001
	c0.012,0.069,0.018,0.14,0.018,0.212c0,0.067-0.006,0.133-0.016,0.197v0.032c0,0.059-0.004,0.118-0.013,0.175
	C213.914,44.757,204.438,48.087,197.557,48.087z M205.091,3.806c-7.453,0-14.083,7.381-15.033,13.979
	c-2.674,18.53-0.641,24.588,1.534,26.407c1.12,0.94,3.294,1.479,5.965,1.479c6.772-0.001,14.346-3.24,14.346-7.576
	c0-2.101-0.886-2.957-3.057-2.957c-2.599,0-6.096,1.319-8.411,2.19c-0.656,0.247-1.227,0.462-1.674,0.611
	c-0.339,0.11-0.711,0.069-1.016-0.12c-0.305-0.188-0.51-0.501-0.562-0.855c-0.873-6.042,2.436-7.185,5.636-8.29
	c1.824-0.629,3.711-1.28,5.35-2.842c1.544-1.468,1.777-2.304,1.673-2.566c-0.172-0.43-1.512-1.07-4.5-1.07
	c-2.807,0-5.577,0.564-6.635,1.109c-0.392,0.202-0.86,0.174-1.225-0.069c-0.366-0.244-0.57-0.667-0.533-1.105
	c0.515-6.167,4.135-7.412,7.636-8.616c2.327-0.8,4.733-1.626,6.569-3.987c0.505-0.822,0.648-1.805,0.392-2.707
	c-0.238-0.834-0.805-1.505-1.596-1.887C208.395,4.186,206.759,3.806,205.091,3.806z"/>
<path fill="#DF0028" d="M243.643,39.17c0,6.602-19.659,12.028-24.306,8.046c-4.558-3.411-2.692-20.078-2.322-25.071
	c0.357-4.831,0.429-11.428,3.173-15.666c3.279-4.666,6.212,1.32,6.656,3.938c1.518,8.936,0.058,18.384,0.085,27.394
	C230.081,36.831,243.643,32.291,243.643,39.17C243.643,40.115,243.643,38.377,243.643,39.17z"/>
<path fill="#A6001E" d="M224.681,49.78c-2.793,0-4.854-0.554-6.13-1.646c-4.057-3.031-3.781-13.564-2.87-24.489
	c0.051-0.61,0.096-1.146,0.128-1.588c0.044-0.595,0.085-1.218,0.125-1.859c0.296-4.632,0.664-10.397,3.239-14.374
	c1.07-1.524,2.243-2.278,3.512-2.278c3.156,0,4.996,4.581,5.351,6.67c1.037,6.101,0.714,12.442,0.401,18.575
	c-0.123,2.432-0.251,4.931-0.288,7.374c2.537-0.772,6.767-1.938,10.239-1.938c5.244,0,6.328,2.693,6.451,4.555
	c0.008,0.058,0.013,0.116,0.013,0.176v0.016c0.01,0.064,0.016,0.131,0.016,0.198s-0.006,0.134-0.016,0.198v0.092
	c0,0.107-0.015,0.211-0.04,0.31C244.042,45.523,232.351,49.78,224.681,49.78z M222.685,5.962c-0.423,0-0.959,0.431-1.508,1.213
	c-2.207,3.409-2.553,8.824-2.83,13.175c-0.042,0.65-0.082,1.281-0.127,1.884c-0.033,0.449-0.078,0.992-0.131,1.61
	c-0.449,5.388-1.642,19.699,1.973,22.403c0.863,0.736,2.481,1.114,4.619,1.114c7.333,0,17.753-4.237,17.753-8.192
	c0-0.757,0-2.527-4.046-2.527c-3.715,0-8.6,1.536-10.686,2.192l-0.414,0.129c-0.364,0.115-0.764,0.048-1.074-0.179
	c-0.31-0.227-0.492-0.587-0.493-0.972c-0.01-3.022,0.148-6.136,0.302-9.146c0.306-6.002,0.621-12.209-0.369-18.048
	C225.314,8.629,223.785,5.962,222.685,5.962z"/>
<path fill="#DF0028" d="M276.117,38.604c0,3.091-0.714,9.179-5.042,9.179c-5.792,0-5.172-9.424-5.326-13.031
	c-4.79,0.798-7.551-0.683-8.526,4.419c-0.421,2.196-4.442,12.003-8.215,7.11c-4.521-5.854-0.729-17.783,0.878-24.05
	c1.806-7.058,10.623-25.845,19.604-13.881C274.988,15.686,276.117,29.695,276.117,38.604
	C276.117,39.36,276.117,36.074,276.117,38.604z M265.183,24.836c0-14.379-5.542-6.836-6.686,2.493
	C261.751,27.059,264.335,27.728,265.183,24.836C265.183,24.383,265.183,24.836,265.183,24.836z"/>
<path fill="#A6001E" d="M271.075,48.991c-6.311,0-6.435-8.297-6.501-12.755c0-0.036-0.001-0.073-0.001-0.11
	c-0.688,0.071-1.324,0.105-1.912,0.139c-2.836,0.159-3.691,0.207-4.251,3.134c-0.216,1.122-2.946,9.441-7.191,9.442l0,0
	c-1.171,0-2.236-0.612-3.168-1.821c-4.471-5.788-1.674-16.288,0.177-23.238c0.176-0.659,0.341-1.279,0.487-1.851
	c1.497-5.852,7.265-18.682,14.646-18.682c2.528,0,4.915,1.472,7.094,4.375c5.722,7.631,6.784,21.567,6.865,29.892
	c0.004,0.037,0.006,0.075,0.006,0.114v0.775c0.011,0.064,0.016,0.131,0.016,0.198c0,0.068-0.005,0.137-0.017,0.202
	C277.277,45.188,274.948,48.991,271.075,48.991z M265.749,33.543c0.276,0,0.545,0.093,0.762,0.269
	c0.269,0.219,0.432,0.542,0.446,0.888c0.019,0.428,0.026,0.937,0.034,1.5c0.075,5.02,0.458,10.374,4.084,10.374
	c3.648,0,3.834-6.639,3.834-7.97c0-6.316-0.623-21.84-6.388-29.529c-1.697-2.261-3.434-3.409-5.16-3.409
	c-5.319,0-10.756,10.812-12.305,16.864c-0.148,0.58-0.315,1.207-0.493,1.873c-1.623,6.094-4.34,16.295-0.599,21.138
	c0.31,0.403,0.778,0.881,1.254,0.881c1.847,0,4.424-5.431,4.816-7.479c0.915-4.779,3.623-4.931,6.49-5.092
	c0.898-0.05,1.918-0.107,3.025-0.292C265.617,33.547,265.684,33.543,265.749,33.543z M258.497,28.539
	c-0.327,0-0.642-0.134-0.871-0.371c-0.251-0.263-0.372-0.624-0.328-0.985c0.589-4.806,2.791-11.575,5.842-11.575
	c2.857,0,3.238,5.064,3.251,8.997c0.001,0.011,0.001,0.021,0.001,0.032v0.201c0,0.001,0,0.002,0,0.003c0,0,0,0.001,0,0.002l0,0
	c-0.001,0.127-0.021,0.25-0.058,0.365c-0.932,3.118-3.574,3.186-5.908,3.244c-0.59,0.016-1.199,0.031-1.828,0.083
	C258.564,28.537,258.53,28.539,258.497,28.539z M263.06,18.094c-0.753,0.538-2.369,3.415-3.152,7.953
	c0.157-0.005,0.31-0.009,0.458-0.013c2.512-0.063,3.213-0.204,3.609-1.381C263.958,19.91,263.308,18.471,263.06,18.094z"/>
</svg>
