<?xml version="1.0" encoding="utf-8"?>
<!-- Generator: Adobe Illustrator 15.0.2, SVG Export Plug-In  -->
<!DOCTYPE svg PUBLIC "-//W3C//DTD SVG 1.1//EN" "http://www.w3.org/Graphics/SVG/1.1/DTD/svg11.dtd" [
	<!ENTITY ns_flows "http://ns.adobe.com/Flows/1.0/">
]>
<svg version="1.1"
	 xmlns="http://www.w3.org/2000/svg" xmlns:xlink="http://www.w3.org/1999/xlink" xmlns:a="http://ns.adobe.com/AdobeSVGViewerExtensions/3.0/"
	 x="0px" y="0px" viewBox="-29.438 -3.981 200 700"
	 overflow="visible" enable-background="new -29.438 -3.981 200 700" xml:space="preserve">
<defs>
</defs>
<path opacity="0.2" d="M70.562,160.646C12.556,160.646,0,185.461,0,191.604c0,2.203,0.795,3.946,8.51,18.657
	c5.705,10.88,13.518,25.78,17.415,35.699c6.836,17.401,12.496,45.177,14.35,62.478c1.891,17.648,8.29,85.513,9.557,112.109
	c0.462,9.725,1.416,42.252,2.621,89.425c-0.856,1.206-1.35,2.672-1.35,4.222c0,0.746,0.115,1.477,0.332,2.17
	c-1.058,3.03-1.609,6.419-1.609,9.966c0,4.019,0.729,7.903,2.085,11.226c-0.111,0.506-0.169,1.026-0.169,1.551
	c0,1.695,0.57,3.269,1.551,4.52c1.326,54.379,2.282,99.282,2.282,107.269c0,2.026,0.735,3.47,1.175,4.332
	c0.086,0.171,0.206,0.404,0.226,0.47c0,0.001,0.034,0.197-0.049,0.698c-0.075,0.444-0.136,0.737-0.181,0.921
	c-0.899,1.118-1.608,2.418-2.275,5c-2.325,8.971-4.384,15.665-4.404,15.732c-0.213,0.688-0.286,1.413-0.214,2.13
	c0.116,1.153,1.675,11.256,20.709,11.256s20.594-10.103,20.71-11.256c0.071-0.717-0.001-1.442-0.215-2.13
	c-0.02-0.067-2.079-6.762-4.403-15.732c-0.656-2.539-1.353-3.839-2.274-4.997c-0.045-0.183-0.107-0.477-0.182-0.924
	c-0.083-0.497-0.051-0.693-0.051-0.693c0.021-0.07,0.14-0.304,0.227-0.475c0.44-0.862,1.175-2.306,1.175-4.332
	c0-7.986,0.957-52.89,2.283-107.269c0.98-1.251,1.551-2.824,1.551-4.52c0-0.524-0.059-1.044-0.169-1.551
	c1.355-3.322,2.085-7.207,2.085-11.226c0-3.547-0.552-6.936-1.609-9.966c0.217-0.693,0.332-1.424,0.332-2.17
	c0-1.55-0.494-3.016-1.351-4.222c1.205-47.173,2.159-79.7,2.621-89.424c1.268-26.629,7.668-94.473,9.559-112.11
	c1.853-17.298,7.511-45.075,14.348-62.478c3.897-9.919,11.711-24.819,17.416-35.699c7.715-14.711,8.51-16.454,8.51-18.657
	C141.123,185.461,128.566,160.646,70.562,160.646z"/>
<path fill="#DF0028" d="M68.399,160.646c-54.936,0-65.156,22.997-65.156,25.552c0,2.555,18.524,34.495,25.551,52.38
	c7.027,17.887,12.776,45.994,14.693,63.879c1.916,17.887,8.304,85.598,9.582,112.427c0.529,11.123,1.607,49.574,2.69,92.061
	c-0.813,0.225-1.413,0.96-1.413,1.843c0,0.721,0.404,1.342,0.993,1.669c-1.414,2.803-2.271,6.463-2.271,10.467
	c0,4.388,1.026,8.362,2.688,11.248c-0.465,0.349-0.771,0.902-0.771,1.528c0,0.911,0.636,1.669,1.487,1.864
	c1.256,51.341,2.346,101.076,2.346,109.925c0,1.916,1.916,2.555,1.277,6.388c-0.753,4.52-1.397,1.916-2.555,6.388
	c-2.387,9.212-4.472,15.97-4.472,15.97s0.639,6.388,15.331,6.388c14.692,0,15.331-6.388,15.331-6.388s-2.085-6.758-4.471-15.97
	c-1.158-4.472-1.803-1.868-2.557-6.388c-0.639-3.833,1.277-4.472,1.277-6.388c0-8.849,1.09-58.584,2.347-109.925
	c0.851-0.195,1.487-0.953,1.487-1.864c0-0.626-0.307-1.18-0.771-1.528c1.66-2.886,2.687-6.86,2.687-11.248
	c0-4.004-0.857-7.664-2.271-10.467c0.59-0.327,0.994-0.948,0.994-1.669c0-0.883-0.6-1.618-1.413-1.843
	c1.082-42.486,2.161-80.938,2.69-92.061c1.277-26.829,7.665-94.541,9.582-112.427c1.916-17.885,7.666-45.992,14.692-63.879
	c7.026-17.886,25.551-49.826,25.551-52.38C133.556,183.643,123.336,160.646,68.399,160.646z"/>
<path fill="#BF0000" d="M68.399,647.405c0,0-0.342-50.237-1.121-114.344c-0.052-4.201-2.714-5.11-2.714-12.776
	c0-7.665,2.457-7.631,2.406-11.497c-1.109-83.365-2.912-181.271-5.598-223.577c-3.435-54.104-16.972-98.105-25.479-121.139
	c-26.771,6.508-32.65,20.19-32.65,22.126c0,2.555,18.524,34.495,25.551,52.38c7.027,17.887,12.776,45.994,14.693,63.879
	c1.916,17.887,8.304,85.598,9.582,112.427c0.529,11.123,1.607,49.574,2.69,92.061c-0.813,0.225-1.413,0.96-1.413,1.843
	c0,0.721,0.404,1.342,0.993,1.669c-1.414,2.803-2.271,6.463-2.271,10.467c0,4.388,1.026,8.362,2.688,11.248
	c-0.465,0.349-0.771,0.902-0.771,1.528c0,0.911,0.636,1.669,1.487,1.864c1.256,51.341,2.346,101.076,2.346,109.925
	c0,1.916,1.916,2.555,1.277,6.388c-0.753,4.52-1.397,1.916-2.555,6.388c-2.387,9.212-4.472,15.97-4.472,15.97
	s0.42,4.153,8.289,5.762c3.843-6.355,5.764-25.564,5.764-25.564C65.845,649.961,68.399,647.405,68.399,647.405z"/>
<path fill="#BF0000" d="M79.26,658.265c-1.158-4.472-1.803-1.868-2.557-6.388c-0.639-3.833,1.277-4.472,1.277-6.388
	c0-8.849,1.09-58.584,2.347-109.925c0.851-0.195,1.487-0.953,1.487-1.864c0-0.626-0.307-1.18-0.771-1.528
	c1.66-2.886,2.687-6.86,2.687-11.248c0-4.004-0.857-7.664-2.271-10.467c0.59-0.327,0.994-0.948,0.994-1.669
	c0-0.883-0.6-1.618-1.413-1.843c1.082-42.486,2.161-80.938,2.69-92.061c1.277-26.829,7.665-94.541,9.582-112.427
	c1.916-17.885,7.666-45.992,14.692-63.879c7.026-17.886,25.551-49.826,25.551-52.38c0-1.008-1.592-5.193-6.884-9.894
	c-8.462,13.514-26.885,44.955-32.721,71.217c-7.665,34.495-19.164,223.577-17.248,260.628c0,0,3.834,6.387,3.834,12.136
	c0,5.75-5.111,15.971-5.111,15.971l0.639,108.595c0,0-2.555,3.193-1.916,5.749c0.639,2.555,2.555,6.388,2.555,6.388l6.306,18.916
	c0.646-0.951,0.722-1.669,0.722-1.669S81.646,667.477,79.26,658.265z"/>
<path fill="#FF6E6E" d="M68.288,417.205c0.032,7.486,0.117,14.972,0.263,22.457l0.266,11.227l0.072,2.758l0.035,2.8l0.068,5.604
	l0.542,44.82l0.005,0.498l0.212,0.425c1.025,2.054,1.971,4.3,2.691,6.5c0.703,2.218,1.262,4.455,1.035,6.448
	c-0.233,2.177-0.885,4.515-1.6,6.785c-0.729,2.275-1.575,4.568-2.483,6.768l-0.151,0.365l0.008,0.338l2.603,109.817
	c0.006-0.021,0.361-0.038,0.368-0.058l0.341,0.098v-0.04c-2,2.542-1.422,5.093-1.617,7.707c-0.04,0.659-0.238,1.323-0.166,2.001
	c0.03,0.34,0.041,0.688,0.116,0.989l0.188,0.948l0.874,3.806l3.483,15.245l-3.128-15.327l-0.802-3.828l-0.202-0.959
	c-0.075-0.329-0.136-0.616-0.156-0.926c-0.052-0.623,0.014-1.268,0.068-1.906c0.253-2.562,0.728-5.116,1.354-7.623l-0.013-0.045
	v-0.053l0.074-109.819c-0.093,0.212-0.217,0.424-0.311,0.637l0.236-0.704v0.067c1-2.104,1.851-4.2,2.604-6.365
	c0.809-2.394,1.63-4.792,1.995-7.498c0.084-0.678,0.157-1.435,0.126-2.141c-0.025-0.711-0.091-1.394-0.194-2.06
	c-0.212-1.332-0.522-2.6-0.893-3.839c-0.701-2.312-1.538-4.479-2.543-6.679l-0.004,0.427l-0.217-0.922
	c0.078,0.166,0.147,0.33,0.223,0.495l0.537-44.394l0.067-5.604l0.035-2.8l-0.007-2.845l0.005-11.183
	c0.035-7.455,0.129-14.91,0.278-22.363c0.539-26.884,7.029-198.295,23.75-253.777c-7.503-1.612-16.53-2.672-27.368-2.814
	C64.762,213.183,68.179,390.364,68.288,417.205z"/>
<path fill="#A30000" d="M68.399,678.706c-7.107,0-13.08-2.62-14.818-6.173c-0.326,1.094-0.513,1.701-0.513,1.701
	s0.639,6.388,15.331,6.388c14.692,0,15.331-6.388,15.331-6.388s-0.188-0.607-0.511-1.701
	C81.479,676.086,75.507,678.706,68.399,678.706z"/>
<path fill="#A30000" d="M68.399,160.646c-54.936,0-65.156,22.997-65.156,25.552c0,0.53,0.801,2.33,2.129,5.008
	c1.387-5.64,10.838-24.172,63.027-24.172c52.189,0,61.641,18.533,63.027,24.172c1.329-2.678,2.129-4.479,2.129-5.008
	C133.556,183.643,123.336,160.646,68.399,160.646z"/>
<path fill="#A30000" d="M81.814,533.7c0-0.466-0.17-0.888-0.447-1.22c-3.925,0.781-8.323,1.22-12.968,1.22
	c-4.644,0-9.042-0.438-12.968-1.22c-0.276,0.332-0.446,0.754-0.446,1.22c0,0.911,0.636,1.669,1.487,1.864
	c0.002,0.081,0.003,0.161,0.006,0.244c3.693,0.697,7.712,1.086,11.921,1.086c4.21,0,8.229-0.389,11.921-1.086
	c0.003-0.083,0.004-0.163,0.007-0.244C81.178,535.369,81.814,534.611,81.814,533.7z"/>
<path fill="#A30000" d="M55.754,506.815c0.002,0.045,0.003,0.088,0.004,0.13c-0.813,0.225-1.413,0.96-1.413,1.843
	c0,0.521,0.212,0.988,0.551,1.331c4.061-0.85,8.644-1.331,13.502-1.331s9.442,0.481,13.502,1.331
	c0.339-0.343,0.552-0.81,0.552-1.331c0-0.883-0.6-1.618-1.413-1.843c0.001-0.042,0.004-0.085,0.004-0.13
	c-3.889-0.786-8.16-1.222-12.645-1.222C63.916,505.594,59.644,506.029,55.754,506.815z"/>
<path fill="#4D4D4D" d="M136.965,3.263c-2.407,5.265-4.407,10.61-6.312,15.974c-1.893,5.367-3.628,10.764-5.228,16.189
	c-1.632,5.418-3.089,10.871-4.499,16.333c-0.732,2.86-1.431,5.727-2.104,8.599c-2.302-0.82-4.61-1.627-6.923-2.418l-7.425-2.538
	l-1.708,7.527c-1.329,5.852-2.556,11.729-3.671,17.631c-1.107,5.904-2.105,11.835-2.984,17.794
	c-0.873,5.96-1.599,11.956-2.169,17.987c-0.545,6.039-0.989,12.1-0.98,18.27c2.779-5.508,5.104-11.124,7.328-16.763
	c2.199-5.646,4.242-11.329,6.139-17.046c1.891-5.719,3.661-11.466,5.323-17.239c0.939-3.28,1.833-6.571,2.703-9.867
	c2.357,0.816,4.72,1.617,7.089,2.402l7.717,2.554l1.379-7.747c0.988-5.546,1.893-11.107,2.68-16.693
	c0.776-5.587,1.507-11.184,2.062-16.815c0.587-5.625,1.04-11.276,1.333-16.959C136.998,14.752,137.185,9.047,136.965,3.263z"/>
<path fill="#4D4D4D" d="M35.975,70.432l-2.813-7.349c-2.013-5.26-4.108-10.493-6.313-15.684c-2.217-5.188-4.478-10.358-6.906-15.47
	c-2.397-5.122-4.925-10.197-7.605-15.217C9.649,11.695,6.866,6.712,3.695,1.87C4.348,7.621,5.39,13.233,6.527,18.811
	c1.145,5.574,2.442,11.093,3.869,16.566c1.396,5.483,2.96,10.906,4.568,16.313c0.848,2.828,1.729,5.644,2.633,8.452
	c-2.396,0.484-4.789,0.984-7.179,1.499l-7.669,1.655l2.417,7.33c1.88,5.699,3.86,11.366,5.949,16.998
	c2.097,5.63,4.3,11.227,6.619,16.785c2.327,5.556,4.796,11.067,7.418,16.529c2.646,5.454,5.394,10.877,8.583,16.158
	c-0.46-6.153-1.365-12.163-2.368-18.142c-1.027-5.97-2.208-11.893-3.531-17.77c-1.33-5.874-2.777-11.712-4.332-17.515
	c-0.886-3.295-1.817-6.575-2.772-9.846c2.441-0.518,4.879-1.05,7.312-1.6L35.975,70.432z"/>
<path fill="#4D4D4D" d="M78.988,49.468c-1.039-5.544-2.124-11.084-3.386-16.6c-1.229-5.521-2.596-11.022-4.123-16.504
	C69.944,10.883,68.308,5.416,66.263,0c-0.61,5.757-0.81,11.46-0.91,17.151c-0.092,5.69-0.022,11.359,0.184,17.011
	c0.174,5.656,0.524,11.289,0.92,16.916c0.214,2.945,0.463,5.886,0.737,8.822c-2.444-0.046-4.889-0.078-7.333-0.093l-7.846-0.048
	l0.771,7.68c0.599,5.971,1.303,11.933,2.12,17.883c0.825,5.95,1.763,11.89,2.821,17.82c1.066,5.929,2.282,11.844,3.657,17.744
	c1.401,5.898,2.906,11.788,4.874,17.634c0.885-6.105,1.306-12.169,1.624-18.224c0.291-6.051,0.424-12.089,0.406-18.112
	c-0.024-6.023-0.171-12.035-0.429-18.037c-0.151-3.409-0.347-6.812-0.57-10.215c2.495,0.025,4.989,0.034,7.484,0.025l8.128-0.029
	l-1.151-7.784C80.924,60.575,80.016,55.013,78.988,49.468z"/>
</svg>
